<svg xmlns="http://www.w3.org/2000/svg" viewBox="22 32 46 35" fill="#004EA2">
<path fill-rule="evenodd" clip-rule="evenodd" d="M44.1474 66.4569L39.1672 58.8578C40.6965 58.0705 40.5071 55.6155 39.197 55.4113C37.7385 55.1828 36.5775 55.1126 35.5542 52.8197H37.9267L37.1984 50.831C34.4838 51.0694 33.93 50.315 32.6429 48.1947L36.0336 48.0786L35.3481 46.3481C31.6532 46.5195 30.6784 45.6136 29.7558 43.5082L34.061 43.3573L33.129 41.2984C28.7201 41.4214 27.7869 41.2966 26.1701 38.3151L31.647 38.2884L30.8746 36.327C25.8826 36.5424 24.6359 36.0538 23.2227 33.5572L34.4435 33.2734C36.0789 33.2318 37.9459 34.3463 38.6339 35.8296L39.9831 38.741L41.403 33.8409C42.1351 31.3164 47.6523 32.2316 49.428 33.9117L46.0907 35.1187L47.7237 39.0949C48.9071 36.3257 50.3569 33.2722 53.4762 33.2722H64.484C63.6371 35.7042 61.5925 36.9168 57.1482 36.1301L56.3671 38.189L61.8564 38.1723C60.5426 41.2351 59.0847 41.6201 55.0018 41.1556L54.1493 43.2145L58.5191 43.3567C57.6784 45.2976 56.1566 46.458 52.7833 46.0545L52.073 48.0593L55.5525 48.0432C54.5553 50.482 53.9115 51.0265 50.74 50.8837L50.0129 52.8718L52.5194 52.8811C51.4658 55.004 51.1535 55.256 48.9046 55.4554C47.5678 55.5739 46.9718 57.7141 48.7519 58.9826L44.1474 66.4569Z"/>
</svg>
